<svg xmlns="http://www.w3.org/2000/svg" viewBox="0 0 586.8 190.8" role="img" aria-label="tszuk">
  <g transform="translate(18 164)">
    <path d="M78 0L52.80 0Q45 0 41.10-4Q37.20-8 37.20-15.20L37.20-86.40L6-86.40L6-97.20L37.20-97.20L37.20-133.60L49.20-133.60L49.20-97.20L83.20-97.20L83.20-86.40L49.20-86.40L49.20-16.80Q49.20-10.80 55.20-10.80L78-10.80L78 0M144.60 2.80Q127 2.80 114.50-5.60Q102-14 99.20-33.40L111-35.60Q112.60-25 117.50-18.90Q122.40-12.80 129.50-10.20Q136.60-7.60 144.60-7.60Q156.60-7.60 163.90-12.50Q171.20-17.40 171.20-26Q171.20-34.80 164.30-38.20Q157.40-41.60 146-43.60L136.80-45.20Q127.60-46.80 120.20-50.10Q112.80-53.40 108.50-59Q104.20-64.60 104.20-73Q104.20-85.60 114.10-92.80Q124-100 140.40-100Q157-100 167.10-92.50Q177.20-85 179.80-70.80L168.60-68.40Q166.60-80 159.10-84.80Q151.60-89.60 140.40-89.60Q129.40-89.60 122.80-85.40Q116.20-81.20 116.20-73Q116.20-65 122.20-61.30Q128.20-57.60 138.60-55.80L147.80-54.20Q157.80-52.60 165.80-49.50Q173.80-46.40 178.50-40.80Q183.20-35.20 183.20-26Q183.20-12.20 172.80-4.70Q162.40 2.80 144.60 2.80M282 0L202.80 0L202.80-16.40L268.20-84.40L268.20-86.40L204.80-86.40L204.80-97.20L280.40-97.20L280.40-80.80L214.80-12.80L214.80-10.80L282-10.80L282 0M345.40 2Q335 2 326.10-2.40Q317.20-6.80 311.90-15.70Q306.60-24.60 306.60-38L306.60-97.20L318.60-97.20L318.60-38.80Q318.60-23 326.60-15.90Q334.60-8.80 348-8.80Q363-8.80 373-18.70Q383-28.60 383-48.60L383-97.20L395-97.20L395 0L383.40 0L383.40-18L381-18Q377.40-10.20 369.20-4.10Q361 2 345.40 2M438.20 0L426.20 0L426.20-140L438.20-140L438.20-55.60L440.60-55.60L490.40-97.20L508-97.20L450.40-49.80L509.60 0L492.20 0L440.60-43.80L438.20-43.80" fill="#171512"/>
    <path d="M533.40 2.80Q528.40 2.80 525.20-0.40Q522-3.60 522-8.60Q522-13.60 525.20-16.80Q528.40-20 533.40-20Q538.40-20 541.60-16.80Q544.80-13.60 544.80-8.60Q544.80-3.60 541.60-0.40Q538.40 2.80 533.40 2.80" fill="#7C2B24"/>
  </g>
</svg>
